<?xml version="1.0" encoding="iso-8859-1"?>
<!-- Generator: Adobe Illustrator 16.0.0, SVG Export Plug-In . SVG Version: 6.00 Build 0)  -->
<!DOCTYPE svg PUBLIC "-//W3C//DTD SVG 1.1//EN" "http://www.w3.org/Graphics/SVG/1.1/DTD/svg11.dtd">
<svg version="1.1" id="Capa_1" xmlns="http://www.w3.org/2000/svg" xmlns:xlink="http://www.w3.org/1999/xlink" x="0px" y="0px"
	 width="93.268px" height="93.268px" viewBox="0 0 93.268 93.268" style="enable-background:new 0 0 93.268 93.268;"
	 xml:space="preserve">
<g>
	<g>
		<path d="M71.065,4.551V4.035C71.065,1.807,69.26,0,67.029,0H26.226c-2.228,0-4.036,1.807-4.036,4.035v1.474h0.018v82.25h-0.018
			v1.474c0,2.229,1.808,4.035,4.036,4.035h40.804c2.229,0,4.036-1.807,4.036-4.035v-0.974h0.013V4.551H71.065z M33.33,2.586
			c0.646,0,1.169,0.523,1.169,1.168s-0.523,1.168-1.169,1.168c-0.645,0-1.168-0.523-1.168-1.168S32.685,2.586,33.33,2.586z
			 M28.268,2.034c0.95,0,1.721,0.77,1.721,1.72c0,0.95-0.771,1.72-1.721,1.72c-0.95,0-1.72-0.77-1.72-1.72
			C26.547,2.804,27.317,2.034,28.268,2.034z M70.078,86.759H23.208V7.384h46.871V86.759z"/>
		<path d="M48.887,12.084c-0.576,0.024-1.276,0.385-1.689,0.869c-0.372,0.43-0.697,1.116-0.609,1.775
			c0.644,0.05,1.3-0.327,1.703-0.812C48.689,13.43,48.959,12.757,48.887,12.084z"/>
		<path d="M44.951,23.554c0.727-0.029,1-0.47,1.878-0.47c0.879,0,1.125,0.47,1.894,0.456c0.781-0.015,1.277-0.71,1.755-1.409
			c0.553-0.809,0.78-1.591,0.795-1.631c-0.019-0.008-1.524-0.585-1.54-2.321c-0.014-1.453,1.186-2.149,1.238-2.184
			c-0.674-0.986-1.723-1.121-2.098-1.137c-0.893-0.09-1.744,0.526-2.196,0.526c-0.452,0-1.152-0.512-1.893-0.499
			c-0.974,0.015-1.871,0.566-2.373,1.438c-1.011,1.756-0.259,4.356,0.727,5.779C43.622,22.8,44.195,23.582,44.951,23.554z"/>
	</g>
</g>
<g>
</g>
<g>
</g>
<g>
</g>
<g>
</g>
<g>
</g>
<g>
</g>
<g>
</g>
<g>
</g>
<g>
</g>
<g>
</g>
<g>
</g>
<g>
</g>
<g>
</g>
<g>
</g>
<g>
</g>
</svg>
